<svg xmlns="http://www.w3.org/2000/svg" viewBox="0 0 40 28.66"><defs><style>.cls-1{fill:#162c77;}.cls-2{fill:#e24328;stroke:#b74e3f;stroke-miterlimit:10;}</style></defs><title>itw-icon</title><g id="圖層_2" data-name="圖層 2"><g id="圖層_1-2" data-name="圖層 1"><path class="cls-1" d="M21.29,18a1.74,1.74,0,0,1-1,.67,2,2,0,0,1-.47.06c-.83,0-1.43-.61-2.28-1.47-.47-.48-1-1.07-1.62-1.71A13.3,13.3,0,0,0,10.39,19L20,28.66l9.61-9.73a13.27,13.27,0,0,0-5.6-3.46c-.82.79-1.59,1.46-2.16,2Z"/><path class="cls-1" d="M26.78,12.53a17.05,17.05,0,0,1,5.46,3.78l2.56-2.59a20.56,20.56,0,0,0-6.13-4.36l-.09.25A12.09,12.09,0,0,1,26.78,12.53Z"/><path class="cls-1" d="M11.23,9.45a20.6,20.6,0,0,0-6,4.33l2.57,2.58a16.92,16.92,0,0,1,5.52-3.83,18.13,18.13,0,0,1-1.8-2.45A5.78,5.78,0,0,1,11.23,9.45Z"/><path class="cls-1" d="M20,0A27.77,27.77,0,0,0,0,8.55l2.61,2.62a24.12,24.12,0,0,1,9-5.93,4.15,4.15,0,0,1,2.58-1.87,5.36,5.36,0,0,1,3.52.47c.77-.07,1.54-.11,2.31-.11l1.14,0A5.1,5.1,0,0,1,24,2.23a4.64,4.64,0,0,1,4,1.84,4.88,4.88,0,0,1,.73,1.29,24.19,24.19,0,0,1,8.65,5.73L40,8.47A27.78,27.78,0,0,0,20,0Z"/><path class="cls-2" d="M19.87,9.66S21.49,4.39,24.28,4c1.21-.17,4,1.5,2.64,4.94s-7,7.72-7,7.94c0,.4-5.88-5.95-6.78-7.64A2.81,2.81,0,0,1,14.63,5.1C16.28,4.71,19.24,6,19.87,9.66Z"/></g></g></svg>